<svg xmlns="http://www.w3.org/2000/svg" viewBox="0 0 32 32" fill="none">
  <path d="M16 1C10.5 1 6 5.5 6 11c0 8.3 10 18.5 10 18.5S26 19.3 26 11C26 5.5 21.5 1 16 1z" fill="#D4A017" stroke="#B8860B" stroke-width="0.5"/>
  <circle cx="16" cy="11" r="7.5" fill="#FFF8E7"/>
  <g transform="translate(16,10.5) scale(0.058)">
    <path d="M-8 60 C-8 60 -52 48 -56 0 C-60-48 -40-80 0-88 C40-80 60-48 56 0 C52 48 8 60 8 60 Z" fill="#A67C00" stroke="#8B6914" stroke-width="6"/>
    <ellipse cx="0" cy="62" rx="18" ry="6" fill="#8B6914"/>
    <path d="M-10-88 C-10-88 -12-108 -8-118 C-4-128 4-128 8-118 C12-108 10-88 10-88" fill="#A67C00" stroke="#8B6914" stroke-width="4"/>
    <path d="M8-118 C8-118 12-126 20-130 C28-134 36-130 36-124" fill="none" stroke="#8B6914" stroke-width="6" stroke-linecap="round"/>
    <path d="M-56 0 C-56 0 -80-8 -84-32 C-88-56 -72-76 -52-68" fill="none" stroke="#8B6914" stroke-width="7" stroke-linecap="round"/>
  </g>
</svg>
